#!OML:ASF F:\VICON\USERDATA\INSTALL\rory3\rory3.ASF
:FULLY-SPECIFIED
:DEGREES
1179
root -0.290409 17.733 13.4907 3.83789 -22.7773 2.7494
lowerback -3.20702 -2.04704 -6.83205
upperback -2.77934 -2.58712 1.14153
thorax -0.725321 -1.19558 4.94193
lowerneck -18.6364 -7.90729 -13.6549
upperneck 24.9042 -9.42209 8.10776
head 12.4124 -4.55623 3.76083
rclavicle -5.30258e-014 4.57205e-015
rhumerus -34.1663 -12.8075 -78.4932
rradius 26.9977
rwrist 23.5127
rhand -21.059 3.29758
rfingers 7.12502
rthumb 5.31738 -26.6157
lclavicle -5.30258e-014 4.57205e-015
lhumerus -32.0333 9.39014 84.2476
lradius 23.5906
lwrist -6.64366
lhand -15.3186 25.9567
lfingers 7.12502
lthumb 10.8575 55.656
rfemur -13.9133 1.78565 19.2278
rtibia 33.8741
rfoot -22.8298 -6.81607
rtoes 7.6831
lfemur -5.36327 0.227465 -26.2594
ltibia 18.9347
lfoot -13.0241 4.38909
ltoes -14.1916
1180
root -0.296347 17.7354 13.5022 3.8664 -22.943 2.75782
lowerback -3.29983 -2.01988 -6.77522
upperback -2.81644 -2.54697 1.09419
thorax -0.721472 -1.17588 4.85955
lowerneck -18.6423 -7.8785 -13.6124
upperneck 24.9044 -9.39712 8.11925
head 12.4083 -4.53982 3.76295
rclavicle -2.47114e-014 1.98785e-015
rhumerus -34.0805 -12.7491 -78.6804
rradius 27.1083
rwrist 23.4486
rhand -21.0143 3.22102
rfingers 7.12502
rthumb 5.36059 -26.6912
lclavicle -2.47114e-014 1.98785e-015
lhumerus -32.0264 9.48477 84.2223
lradius 23.4192
lwrist -6.94316
lhand -15.1454 25.9772
lfingers 7.12502
lthumb 11.0245 55.6677
rfemur -13.9293 1.82509 19.204
rtibia 33.9229
rfoot -22.8907 -6.60121
rtoes 8.37342
lfemur -5.25729 -0.017877 -26.2753
ltibia 18.7508
lfoot -12.9503 4.67393
ltoes -13.2465
1181
root -0.300024 17.7362 13.5172 3.92484 -23.1129 2.62349
lowerback -3.41797 -1.98164 -6.52821
upperback -2.83375 -2.494 1.07837
thorax -0.689867 -1.15369 4.70207
lowerneck -18.6001 -7.85522 -13.5669
upperneck 24.8895 -9.36729 8.06549
head 12.3842 -4.53012 3.74093
rclavicle -4.05024e-015 1.61016e-014
rhumerus -34.0132 -12.6515 -78.8239
rradius 27.2431
rwrist 23.309
rhand -20.7246 3.23089
rfingers 7.12502
rthumb 5.64026 -26.674
lclavicle -4.05024e-015 1.61016e-014
lhumerus -32.0315 9.54274 84.2002
lradius 23.3084
lwrist -7.23347
lhand -14.9893 25.9581
lfingers 7.12502
lthumb 11.175 55.6405
rfemur -13.8844 1.82671 19.314
rtibia 33.9371
rfoot -22.8905 -6.47047
rtoes 8.07908
lfemur -5.1215 -0.158315 -26.1824
ltibia 18.6377
lfoot -12.9811 4.98686
ltoes -13.3224
1182
root -0.306669 17.7334 13.5326 3.94002 -23.2402 2.58463
lowerback -3.50799 -1.98438 -6.46163
upperback -2.88322 -2.49471 1.10571
thorax -0.691976 -1.15361 4.69089
lowerneck -18.5923 -7.8125 -13.5762
upperneck 24.9862 -9.2883 7.98597
head 12.4068 -4.50747 3.72793
rclavicle 1.06226e-014 -3.37934e-015
rhumerus -34.032 -12.36 -78.9393
rradius 27.4304
rwrist 23.108
rhand -20.565 3.13405
rfingers 7.12502
rthumb 5.79439 -26.7667
lclavicle 1.06226e-014 -3.37934e-015
lhumerus -32.0733 9.63374 84.2463
lradius 23.1512
lwrist -7.43453
lhand -14.9626 25.9539
lfingers 7.12502
lthumb 11.2008 55.6349
rfemur -13.8195 1.84742 19.3424
rtibia 33.912
rfoot -22.9045 -6.38583
rtoes 8.02854
lfemur -5.03937 -0.0117473 -26.163
ltibia 18.6347
lfoot -13.0406 5.04923
ltoes -13.6657
1183
root -0.31412 17.7307 13.5442 4.00102 -23.3578 2.54821
lowerback -3.58992 -1.99003 -6.48444
upperback -2.92814 -2.49748 1.16504
thorax -0.68913 -1.15335 4.76354
lowerneck -18.7505 -7.81098 -13.499
upperneck 25.1279 -9.24071 7.79483
head 12.4736 -4.49986 3.64823
rclavicle -2.37051e-014 7.7526e-015
rhumerus -33.9434 -12.1534 -79.0335
rradius 27.5522
rwrist 23.037
rhand -20.6171 3.18426
rfingers 7.12502
rthumb 5.744 -26.7179
lclavicle -2.37051e-014 7.7526e-015
lhumerus -32.0308 9.60493 84.3904
lradius 22.9904
lwrist -7.43868
lhand -14.8808 26.0218
lfingers 7.12502
lthumb 11.2797 55.6985
rfemur -13.8194 1.95939 19.3894
rtibia 33.8639
rfoot -22.9235 -6.37097
rtoes 8.33971
lfemur -5.07145 0.0208666 -26.1221
ltibia 18.6962
lfoot -13.1053 5.11518
ltoes -13.7526
